<svg xmlns="http://www.w3.org/2000/svg" version="1.1" xmlns:xlink="http://www.w3.org/1999/xlink" xmlns:svgjs="http://svgjs.dev/svgjs" width="1000" height="1000" viewBox="0 0 1000 1000"><rect width="1000" height="1000" fill="#ffffff"></rect><g transform="matrix(0.7,0,0,0.7,149.57575757575756,433.8368622146878)"><svg viewBox="0 0 396 75" data-background-color="#ffffff" preserveAspectRatio="xMidYMid meet" height="189" width="1000" xmlns="http://www.w3.org/2000/svg" xmlns:xlink="http://www.w3.org/1999/xlink"><g id="tight-bounds" transform="matrix(1,0,0,1,0.2400000000000091,0.0074477240999044625)"><svg viewBox="0 0 395.52 74.98510455180019" height="74.98510455180019" width="395.52"><g><svg viewBox="0 0 694.2393817623907 131.6181548984375" height="74.98510455180019" width="395.52"><g><rect width="8.706139510173509" height="115.84883406754771" x="418.3109411261087" y="7.884660415444891" fill="#000000" opacity="1" stroke-width="0" stroke="transparent" fill-opacity="1" class="rect-o-0" data-fill-palette-color="primary" rx="1%" id="o-0" data-palette-color="#f9842c"></rect></g><g transform="matrix(1,0,0,1,0,17.538729921073866)"><svg viewBox="0 0 395.52 96.54069505628976" height="96.54069505628976" width="395.52"><g id="textblocktransform"><svg viewBox="0 0 395.52 96.54069505628976" height="96.54069505628976" width="395.52" id="textblock"><g><svg viewBox="0 0 395.52 96.54069505628976" height="96.54069505628976" width="395.52"><g transform="matrix(1,0,0,1,0,0)"><svg width="395.52" viewBox="2.319999933242798 -36.040000915527344 149.6199951171875 36.53000259399414" height="96.54069505628976" data-palette-color="#f9842c"><path d="M27.03-18.7L27.03-4.03Q24.95-1.78 21.94-0.65 18.92 0.49 15.33 0.49L15.33 0.49Q9.2 0.49 5.81-3.31 2.42-7.1 2.32-14.36L2.32-14.36 2.32-20.75Q2.32-28.1 5.53-32.07 8.74-36.04 14.89-36.04L14.89-36.04Q20.68-36.04 23.62-33.18 26.56-30.32 27.03-24.22L27.03-24.22 20.04-24.22Q19.75-27.61 18.63-28.85 17.5-30.08 15.11-30.08L15.11-30.08Q12.21-30.08 10.89-27.95 9.57-25.83 9.52-21.19L9.52-21.19 9.52-14.75Q9.52-9.89 10.97-7.68 12.43-5.47 15.75-5.47L15.75-5.47Q17.87-5.47 19.19-6.32L19.19-6.32 19.82-6.76 19.82-13.28 14.79-13.28 14.79-18.7 27.03-18.7ZM37.45-35.55L42.82-19.58 48.17-35.55 55.98-35.55 46.46-12.89 46.46 0 39.18 0 39.18-12.89 29.64-35.55 37.45-35.55ZM59.22-35.55L68.6-35.55 75.31-9.84 82-35.55 91.38-35.55 91.38 0 84.17 0 84.17-9.62 84.83-24.44 77.73 0 72.85 0 65.74-24.44 66.4-9.62 66.4 0 59.22 0 59.22-35.55ZM116.45 0L114.54-7.28 104.75-7.28 102.85 0 95.26 0 106.36-35.55 112.93-35.55 124.11 0 116.45 0ZM109.64-25.93L106.32-13.26 112.96-13.26 109.64-25.93ZM151.94-20.65L151.94-14.58Q151.94-7.42 148.56-3.47 145.18 0.49 139.17 0.49L139.17 0.49Q133.19 0.49 129.78-3.43 126.36-7.35 126.31-14.4L126.31-14.4 126.31-20.48Q126.31-27.81 129.7-31.92 133.1-36.04 139.13-36.04L139.13-36.04Q145.06-36.04 148.48-31.99 151.89-27.95 151.94-20.65L151.94-20.65ZM144.74-14.36L144.74-20.53Q144.74-25.34 143.37-27.69 142.01-30.03 139.13-30.03L139.13-30.03Q136.27-30.03 134.9-27.77 133.53-25.51 133.49-20.9L133.49-20.9 133.49-14.58Q133.49-9.91 134.88-7.7 136.27-5.49 139.17-5.49L139.17-5.49Q141.98-5.49 143.35-7.65 144.72-9.81 144.74-14.36L144.74-14.36Z" opacity="1" transform="matrix(1,0,0,1,0,0)" fill="#000000" class="undefined-text-0" data-fill-palette-color="primary" id="text-0"></path></svg></g></svg></g></svg></g></svg></g><g transform="matrix(1,0,0,1,449.8080217623908,0)"><svg viewBox="0 0 244.43135999999996 131.6181548984375" height="131.6181548984375" width="244.43135999999996"><g><svg xmlns="http://www.w3.org/2000/svg" xmlns:xlink="http://www.w3.org/1999/xlink" version="1.1" x="0" y="0" viewBox="5 25.768999099731445 90 48.462005615234375" enable-background="new 0 0 100 100" xml:space="preserve" height="131.6181548984375" width="244.43135999999996" class="icon-icon-0" data-fill-palette-color="accent" id="icon-0"><g fill="#f9842c" data-fill-palette-color="accent"><rect x="5" y="43.077" fill="#000000" width="3.462" height="13.846" data-fill-palette-color="accent"></rect><rect x="11.923" y="32.692" fill="#000000" width="3.462" height="34.615" data-fill-palette-color="accent"></rect><rect x="18.846" y="25.769" fill="#000000" width="6.924" height="48.462" data-fill-palette-color="accent"></rect><rect x="29.23" y="46.539" fill="#000000" width="41.539" height="6.923" data-fill-palette-color="accent"></rect><rect x="91.538" y="43.077" fill="#000000" width="3.462" height="13.846" data-fill-palette-color="accent"></rect><rect x="84.615" y="32.692" fill="#000000" width="3.462" height="34.615" data-fill-palette-color="accent"></rect><rect x="74.23" y="25.769" fill="#000000" width="6.924" height="48.462" data-fill-palette-color="accent"></rect></g></svg></g></svg></g></svg></g><defs></defs></svg><rect width="395.52" height="74.98510455180019" fill="none" stroke="none" visibility="hidden"></rect></g></svg></g></svg>